<svg width="860" height="633" viewBox="0 0 860 633" fill="none" xmlns="http://www.w3.org/2000/svg">
<g id="undraw_Weather_app_re_kcb1 1" clip-path="url(#clip0)">
<path id="Path 449" d="M556.633 236.244C546.04 235.804 536.389 231.529 532.023 224.906C531.819 224.596 531.626 224.282 531.446 223.963C529.852 221.141 529.354 217.897 531.097 215.116C532.84 212.335 537.197 210.223 541.565 210.662C545.933 211.101 549.35 214.588 547.541 217.348C547.141 211.77 546.806 205.909 551.303 201.054C553.778 198.517 557.008 196.848 560.51 196.296C569.572 194.702 575.588 199.826 576.793 204.996C577.682 208.815 576.454 212.696 575.231 216.475C579 212.018 587.963 210.035 594.831 212.14C601.699 214.245 605.504 220.14 603.159 225.04C600.396 230.804 591.185 233.783 582.629 235.358C575.562 236.659 564.968 236.59 556.633 236.244Z" fill="#F2F2F2"/>
<path id="Path 538" d="M221.22 225.244C231.813 224.804 241.464 220.529 245.829 213.906C246.034 213.596 246.226 213.282 246.406 212.963C248 210.141 248.498 206.897 246.755 204.116C245.012 201.335 240.655 199.223 236.287 199.662C231.919 200.101 228.501 203.588 230.311 206.348C230.711 200.77 231.046 194.909 226.549 190.054C224.074 187.517 220.845 185.848 217.343 185.296C208.281 183.702 202.265 188.826 201.06 193.996C200.171 197.815 201.399 201.696 202.622 205.475C198.853 201.018 189.89 199.035 183.022 201.14C176.154 203.245 172.348 209.14 174.694 214.04C177.457 219.804 186.668 222.783 195.224 224.358C202.291 225.659 212.884 225.59 221.22 225.244Z" fill="#F2F2F2"/>
<g id="Vector" filter="url(#filter0_d)">
<path d="M390.029 165.866C382.354 165.866 374.851 163.59 368.469 159.326C362.088 155.062 357.114 149.001 354.177 141.91C351.239 134.819 350.471 127.017 351.968 119.489C353.466 111.961 357.162 105.047 362.589 99.6194C368.016 94.1922 374.931 90.4962 382.458 88.9989C389.986 87.5015 397.789 88.27 404.88 91.2072C411.971 94.1443 418.031 99.1183 422.296 105.5C426.56 111.882 428.836 119.385 428.836 127.06C428.824 137.348 424.732 147.212 417.456 154.487C410.181 161.762 400.318 165.855 390.029 165.866ZM390.029 94.721C383.633 94.721 377.381 96.6176 372.063 100.171C366.745 103.724 362.6 108.775 360.152 114.684C357.704 120.593 357.064 127.096 358.312 133.369C359.56 139.642 362.639 145.404 367.162 149.927C371.685 154.449 377.447 157.529 383.72 158.777C389.993 160.025 396.496 159.385 402.405 156.937C408.314 154.489 413.364 150.344 416.918 145.026C420.471 139.708 422.368 133.456 422.368 127.06C422.358 118.486 418.948 110.266 412.885 104.203C406.823 98.1409 398.603 94.7306 390.029 94.721Z" fill="#F2C94C"/>
</g>
<g id="Vector_2" filter="url(#filter1_d)">
<path d="M388.756 78.5516C387.898 78.5515 387.075 78.2108 386.469 77.6044C385.862 76.9979 385.522 76.1754 385.522 75.3177V38.1281C385.522 37.2704 385.862 36.4479 386.469 35.8414C387.075 35.2349 387.898 34.8942 388.756 34.8942C389.613 34.8942 390.436 35.2349 391.042 35.8414C391.649 36.4479 391.99 37.2704 391.99 38.1281V75.3177C391.989 76.1754 391.649 76.9979 391.042 77.6044C390.436 78.2108 389.613 78.5515 388.756 78.5516Z" fill="#F2C94C"/>
</g>
<g id="Vector_3" filter="url(#filter2_d)">
<path d="M338.287 129.021H301.098C300.24 129.021 299.417 128.68 298.811 128.074C298.204 127.467 297.864 126.645 297.864 125.787C297.864 124.929 298.204 124.107 298.811 123.5C299.417 122.894 300.24 122.553 301.098 122.553H338.287C339.145 122.553 339.967 122.894 340.574 123.5C341.18 124.107 341.521 124.929 341.521 125.787C341.521 126.645 341.18 127.467 340.574 128.074C339.967 128.68 339.145 129.021 338.287 129.021H338.287Z" fill="#F2C94C"/>
</g>
<g id="Vector_4" filter="url(#filter3_d)">
<path d="M474.11 129.021H436.92C436.063 129.021 435.24 128.68 434.634 128.074C434.027 127.467 433.686 126.645 433.686 125.787C433.686 124.929 434.027 124.107 434.634 123.5C435.24 122.894 436.063 122.553 436.92 122.553H474.11C474.968 122.553 475.79 122.894 476.397 123.5C477.003 124.107 477.344 124.929 477.344 125.787C477.344 126.645 477.003 127.467 476.397 128.074C475.79 128.68 474.968 129.021 474.11 129.021Z" fill="#F2C94C"/>
</g>
<g id="Vector_5" filter="url(#filter4_d)">
<path d="M435.899 93.6614C435.255 93.6614 434.626 93.4693 434.092 93.1096C433.558 92.7499 433.144 92.239 432.902 91.6424C432.66 91.0457 432.602 90.3905 432.734 89.7606C432.867 89.1306 433.185 88.5546 433.647 88.1064L449.221 72.9965C449.526 72.7 449.886 72.4664 450.281 72.3092C450.676 72.152 451.098 72.0742 451.523 72.0803C451.948 72.0864 452.368 72.1762 452.758 72.3447C453.149 72.5132 453.502 72.757 453.798 73.0621C454.094 73.3673 454.327 73.7278 454.483 74.1231C454.64 74.5184 454.717 74.9406 454.71 75.3657C454.703 75.7908 454.613 76.2104 454.444 76.6005C454.275 76.9905 454.03 77.3434 453.725 77.6389L438.15 92.7487C437.548 93.3352 436.74 93.6627 435.899 93.6614V93.6614Z" fill="#F2C94C"/>
</g>
<g id="Vector_6" filter="url(#filter5_d)">
<path d="M340.926 93.6614C340.085 93.6626 339.277 93.3351 338.674 92.7487L323.1 77.6389C322.794 77.3434 322.55 76.9905 322.381 76.6005C322.211 76.2104 322.121 75.7908 322.114 75.3657C322.107 74.9406 322.184 74.5184 322.341 74.1231C322.497 73.7278 322.73 73.3673 323.026 73.0621C323.322 72.757 323.676 72.5132 324.066 72.3447C324.456 72.1762 324.876 72.0864 325.301 72.0803C325.726 72.0742 326.148 72.152 326.543 72.3092C326.938 72.4664 327.299 72.7 327.603 72.9965L343.177 88.1064C343.639 88.5546 343.957 89.1306 344.09 89.7606C344.223 90.3905 344.165 91.0457 343.923 91.6424C343.681 92.239 343.266 92.7499 342.732 93.1096C342.199 93.4693 341.569 93.6614 340.926 93.6614V93.6614Z" fill="#F2C94C"/>
</g>
<g id="Vector_7" filter="url(#filter6_d)">
<path d="M328.585 182.036C327.95 182.036 327.329 181.848 326.799 181.497C326.269 181.146 325.855 180.646 325.607 180.061C325.36 179.476 325.29 178.83 325.407 178.206C325.524 177.581 325.822 177.005 326.265 176.549L341.839 160.51C342.437 159.896 343.254 159.544 344.112 159.531C344.969 159.519 345.796 159.848 346.411 160.445C347.026 161.042 347.379 161.859 347.392 162.717C347.405 163.574 347.077 164.401 346.48 165.017L330.906 181.055C330.605 181.366 330.244 181.613 329.845 181.781C329.447 181.949 329.018 182.036 328.585 182.036V182.036Z" fill="#F2C94C"/>
</g>
<g id="Vector_8" filter="url(#filter7_d)">
<path d="M454.707 185.27C454.275 185.27 453.848 185.184 453.45 185.017C453.053 184.849 452.693 184.603 452.393 184.294L433.585 165.022C433.287 164.718 433.053 164.358 432.895 163.964C432.736 163.57 432.657 163.148 432.662 162.723C432.667 162.298 432.756 161.878 432.923 161.487C433.09 161.097 433.333 160.743 433.637 160.446C433.941 160.149 434.301 159.915 434.696 159.758C435.091 159.6 435.512 159.522 435.937 159.527C436.362 159.533 436.782 159.622 437.172 159.79C437.563 159.958 437.916 160.201 438.213 160.505L457.021 179.778C457.465 180.233 457.766 180.809 457.884 181.434C458.003 182.059 457.934 182.706 457.687 183.292C457.44 183.878 457.025 184.379 456.495 184.73C455.965 185.082 455.343 185.27 454.707 185.27V185.27Z" fill="#F2C94C"/>
</g>
<g id="Vector_9" filter="url(#filter8_d)">
<path d="M388.756 217.608C387.898 217.608 387.075 217.268 386.469 216.661C385.862 216.055 385.522 215.232 385.522 214.375V177.185C385.522 176.76 385.605 176.34 385.768 175.947C385.93 175.555 386.169 175.199 386.469 174.898C386.769 174.598 387.126 174.36 387.518 174.197C387.91 174.035 388.331 173.951 388.756 173.951C389.18 173.951 389.601 174.035 389.993 174.197C390.386 174.36 390.742 174.598 391.042 174.898C391.343 175.199 391.581 175.555 391.743 175.947C391.906 176.34 391.99 176.76 391.99 177.185V214.375C391.989 215.232 391.649 216.055 391.042 216.661C390.436 217.268 389.613 217.608 388.756 217.608V217.608Z" fill="#F2C94C"/>
</g>
<g id="Vector_10" filter="url(#filter9_d)">
<path d="M604.397 628H246.16C168.876 628 106 568.024 106 494.305C106 420.585 168.876 360.609 246.16 360.609H271.646C285.668 333.791 307.274 311.102 334.105 295.019C361.329 278.69 392.965 270.009 425.279 270C514.91 270 589.618 336.119 596.571 421.015H604.397C664.281 421.015 713 467.442 713 524.508C713 581.573 664.281 628 604.397 628ZM246.16 366.24C172.185 366.24 112.003 423.689 112.003 494.305C112.003 564.919 172.185 622.369 246.16 622.369H604.397C660.971 622.369 706.997 578.469 706.997 524.508C706.997 470.547 660.971 426.646 604.397 426.646H590.946L590.774 424.002C585.365 340.804 512.671 275.631 425.279 275.631C362.348 275.631 303.843 310.57 276.232 364.641L275.415 366.24H246.16Z" fill="white"/>
</g>
</g>
<defs>
<filter id="filter0_d" x="347.223" y="88.2532" width="85.6132" height="85.6131" filterUnits="userSpaceOnUse" color-interpolation-filters="sRGB">
<feFlood flood-opacity="0" result="BackgroundImageFix"/>
<feColorMatrix in="SourceAlpha" type="matrix" values="0 0 0 0 0 0 0 0 0 0 0 0 0 0 0 0 0 0 127 0"/>
<feOffset dy="4"/>
<feGaussianBlur stdDeviation="2"/>
<feColorMatrix type="matrix" values="0 0 0 0 0 0 0 0 0 0 0 0 0 0 0 0 0 0 0.25 0"/>
<feBlend mode="normal" in2="BackgroundImageFix" result="effect1_dropShadow"/>
<feBlend mode="normal" in="SourceGraphic" in2="effect1_dropShadow" result="shape"/>
</filter>
<filter id="filter1_d" x="381.522" y="34.8942" width="14.4678" height="51.6574" filterUnits="userSpaceOnUse" color-interpolation-filters="sRGB">
<feFlood flood-opacity="0" result="BackgroundImageFix"/>
<feColorMatrix in="SourceAlpha" type="matrix" values="0 0 0 0 0 0 0 0 0 0 0 0 0 0 0 0 0 0 127 0"/>
<feOffset dy="4"/>
<feGaussianBlur stdDeviation="2"/>
<feColorMatrix type="matrix" values="0 0 0 0 0 0 0 0 0 0 0 0 0 0 0 0 0 0 0.25 0"/>
<feBlend mode="normal" in2="BackgroundImageFix" result="effect1_dropShadow"/>
<feBlend mode="normal" in="SourceGraphic" in2="effect1_dropShadow" result="shape"/>
</filter>
<filter id="filter2_d" x="293.864" y="122.553" width="51.6573" height="14.4678" filterUnits="userSpaceOnUse" color-interpolation-filters="sRGB">
<feFlood flood-opacity="0" result="BackgroundImageFix"/>
<feColorMatrix in="SourceAlpha" type="matrix" values="0 0 0 0 0 0 0 0 0 0 0 0 0 0 0 0 0 0 127 0"/>
<feOffset dy="4"/>
<feGaussianBlur stdDeviation="2"/>
<feColorMatrix type="matrix" values="0 0 0 0 0 0 0 0 0 0 0 0 0 0 0 0 0 0 0.25 0"/>
<feBlend mode="normal" in2="BackgroundImageFix" result="effect1_dropShadow"/>
<feBlend mode="normal" in="SourceGraphic" in2="effect1_dropShadow" result="shape"/>
</filter>
<filter id="filter3_d" x="429.686" y="122.553" width="51.6574" height="14.4678" filterUnits="userSpaceOnUse" color-interpolation-filters="sRGB">
<feFlood flood-opacity="0" result="BackgroundImageFix"/>
<feColorMatrix in="SourceAlpha" type="matrix" values="0 0 0 0 0 0 0 0 0 0 0 0 0 0 0 0 0 0 127 0"/>
<feOffset dy="4"/>
<feGaussianBlur stdDeviation="2"/>
<feColorMatrix type="matrix" values="0 0 0 0 0 0 0 0 0 0 0 0 0 0 0 0 0 0 0.25 0"/>
<feBlend mode="normal" in2="BackgroundImageFix" result="effect1_dropShadow"/>
<feBlend mode="normal" in="SourceGraphic" in2="effect1_dropShadow" result="shape"/>
</filter>
<filter id="filter4_d" x="428.665" y="72.0799" width="30.0459" height="29.5815" filterUnits="userSpaceOnUse" color-interpolation-filters="sRGB">
<feFlood flood-opacity="0" result="BackgroundImageFix"/>
<feColorMatrix in="SourceAlpha" type="matrix" values="0 0 0 0 0 0 0 0 0 0 0 0 0 0 0 0 0 0 127 0"/>
<feOffset dy="4"/>
<feGaussianBlur stdDeviation="2"/>
<feColorMatrix type="matrix" values="0 0 0 0 0 0 0 0 0 0 0 0 0 0 0 0 0 0 0.25 0"/>
<feBlend mode="normal" in2="BackgroundImageFix" result="effect1_dropShadow"/>
<feBlend mode="normal" in="SourceGraphic" in2="effect1_dropShadow" result="shape"/>
</filter>
<filter id="filter5_d" x="318.114" y="72.0799" width="30.0459" height="29.5815" filterUnits="userSpaceOnUse" color-interpolation-filters="sRGB">
<feFlood flood-opacity="0" result="BackgroundImageFix"/>
<feColorMatrix in="SourceAlpha" type="matrix" values="0 0 0 0 0 0 0 0 0 0 0 0 0 0 0 0 0 0 127 0"/>
<feOffset dy="4"/>
<feGaussianBlur stdDeviation="2"/>
<feColorMatrix type="matrix" values="0 0 0 0 0 0 0 0 0 0 0 0 0 0 0 0 0 0 0.25 0"/>
<feBlend mode="normal" in2="BackgroundImageFix" result="effect1_dropShadow"/>
<feBlend mode="normal" in="SourceGraphic" in2="effect1_dropShadow" result="shape"/>
</filter>
<filter id="filter6_d" x="321.352" y="159.531" width="30.0402" height="30.5047" filterUnits="userSpaceOnUse" color-interpolation-filters="sRGB">
<feFlood flood-opacity="0" result="BackgroundImageFix"/>
<feColorMatrix in="SourceAlpha" type="matrix" values="0 0 0 0 0 0 0 0 0 0 0 0 0 0 0 0 0 0 127 0"/>
<feOffset dy="4"/>
<feGaussianBlur stdDeviation="2"/>
<feColorMatrix type="matrix" values="0 0 0 0 0 0 0 0 0 0 0 0 0 0 0 0 0 0 0.25 0"/>
<feBlend mode="normal" in2="BackgroundImageFix" result="effect1_dropShadow"/>
<feBlend mode="normal" in="SourceGraphic" in2="effect1_dropShadow" result="shape"/>
</filter>
<filter id="filter7_d" x="428.662" y="159.527" width="33.2786" height="33.7427" filterUnits="userSpaceOnUse" color-interpolation-filters="sRGB">
<feFlood flood-opacity="0" result="BackgroundImageFix"/>
<feColorMatrix in="SourceAlpha" type="matrix" values="0 0 0 0 0 0 0 0 0 0 0 0 0 0 0 0 0 0 127 0"/>
<feOffset dy="4"/>
<feGaussianBlur stdDeviation="2"/>
<feColorMatrix type="matrix" values="0 0 0 0 0 0 0 0 0 0 0 0 0 0 0 0 0 0 0.25 0"/>
<feBlend mode="normal" in2="BackgroundImageFix" result="effect1_dropShadow"/>
<feBlend mode="normal" in="SourceGraphic" in2="effect1_dropShadow" result="shape"/>
</filter>
<filter id="filter8_d" x="381.522" y="173.951" width="14.4678" height="51.6573" filterUnits="userSpaceOnUse" color-interpolation-filters="sRGB">
<feFlood flood-opacity="0" result="BackgroundImageFix"/>
<feColorMatrix in="SourceAlpha" type="matrix" values="0 0 0 0 0 0 0 0 0 0 0 0 0 0 0 0 0 0 127 0"/>
<feOffset dy="4"/>
<feGaussianBlur stdDeviation="2"/>
<feColorMatrix type="matrix" values="0 0 0 0 0 0 0 0 0 0 0 0 0 0 0 0 0 0 0.25 0"/>
<feBlend mode="normal" in2="BackgroundImageFix" result="effect1_dropShadow"/>
<feBlend mode="normal" in="SourceGraphic" in2="effect1_dropShadow" result="shape"/>
</filter>
<filter id="filter9_d" x="102" y="270" width="615" height="366" filterUnits="userSpaceOnUse" color-interpolation-filters="sRGB">
<feFlood flood-opacity="0" result="BackgroundImageFix"/>
<feColorMatrix in="SourceAlpha" type="matrix" values="0 0 0 0 0 0 0 0 0 0 0 0 0 0 0 0 0 0 127 0"/>
<feOffset dy="4"/>
<feGaussianBlur stdDeviation="2"/>
<feColorMatrix type="matrix" values="0 0 0 0 0 0 0 0 0 0 0 0 0 0 0 0 0 0 0.25 0"/>
<feBlend mode="normal" in2="BackgroundImageFix" result="effect1_dropShadow"/>
<feBlend mode="normal" in="SourceGraphic" in2="effect1_dropShadow" result="shape"/>
</filter>
<clipPath id="clip0">
<rect width="859.113" height="632.68" fill="white"/>
</clipPath>
</defs>
</svg>
