<svg width="200" height="200" viewBox="0 0 200 600" fill="none" xmlns="http://www.w3.org/2000/svg">
<g id="undraw_Freelancer_re_irh4 1" clip-path="url(#clip0)">
<path id="Vector" d="M9.35857 239.846C10.5676 224.311 13.9069 209.118 19.2432 194.874C20.7305 190.91 22.3674 187.033 24.1541 183.244C24.2437 183.046 24.2653 182.814 24.2143 182.597C24.1633 182.38 24.0437 182.196 23.8807 182.082C23.7178 181.968 23.5243 181.935 23.3409 181.988C23.1575 182.041 22.9987 182.178 22.8979 182.368C16.4006 196.17 11.8488 211.152 9.42445 226.715C8.75007 231.061 8.24322 235.438 7.90389 239.846C7.81766 240.957 9.27288 240.95 9.35857 239.846V239.846Z" fill="#E6E6E6"/>
<path id="Vector_2" d="M27.6774 186.028C32.7657 186.028 36.8906 181.106 36.8906 175.036C36.8906 168.965 32.7657 164.044 27.6774 164.044C22.5891 164.044 18.4642 168.965 18.4642 175.036C18.4642 181.106 22.5891 186.028 27.6774 186.028Z" fill="#E6E6E6"/>
<path id="Vector_3" d="M17.1514 240.137C17.9357 230.059 20.1021 220.203 23.564 210.962C24.5289 208.391 25.5908 205.876 26.7499 203.418C26.808 203.289 26.822 203.138 26.7889 202.998C26.7558 202.857 26.6783 202.737 26.5726 202.664C26.4669 202.59 26.3413 202.568 26.2224 202.603C26.1034 202.637 26.0004 202.726 25.935 202.849C21.7199 211.803 18.7669 221.523 17.1941 231.619C16.7566 234.439 16.4278 237.278 16.2077 240.137C16.1517 240.859 17.0958 240.854 17.1514 240.137V240.137Z" fill="#E6E6E6"/>
<path id="Vector_4" d="M22.1853 205.223C25.4863 205.223 28.1623 202.031 28.1623 198.092C28.1623 194.154 25.4863 190.961 22.1853 190.961C18.8843 190.961 16.2083 194.154 16.2083 198.092C16.2083 202.031 18.8843 205.223 22.1853 205.223Z" fill="#E6E6E6"/>
<path id="Vector_5" d="M15.9602 239.464C11.3831 230.942 8.01007 221.581 5.97592 211.755C5.41098 209.019 4.95179 206.257 4.59836 203.468C4.57794 203.324 4.51143 203.195 4.41284 203.108C4.31424 203.022 4.19129 202.984 4.06992 203.003C3.94855 203.023 3.83825 203.098 3.76231 203.212C3.68637 203.327 3.65069 203.472 3.66286 203.618C4.95525 213.771 7.63759 223.601 11.6025 232.716C12.7111 235.261 13.9156 237.741 15.2161 240.157C15.5438 240.767 16.2859 240.07 15.9602 239.464Z" fill="#E6E6E6"/>
<path id="Vector_6" d="M3.65535 204.723C6.95636 204.723 9.63238 201.53 9.63238 197.592C9.63238 193.653 6.95636 190.461 3.65535 190.461C0.354331 190.461 -2.32166 193.653 -2.32166 197.592C-2.32166 201.53 0.354331 204.723 3.65535 204.723Z" fill="#E6E6E6"/>
<path id="Vector_7" d="M-2.38873 245.774V231.763C-2.38742 230.37 -1.92307 229.034 -1.09748 228.049C-0.271886 227.064 0.847523 226.51 2.01508 226.509H29.4166C30.5842 226.51 31.7035 227.064 32.5291 228.049C33.3547 229.034 33.8191 230.37 33.8204 231.763V245.774C33.8191 247.167 33.3547 248.502 32.5291 249.487C31.7035 250.472 30.5842 251.026 29.4166 251.028H2.01508C0.847523 251.026 -0.271886 250.472 -1.09748 249.487C-1.92307 248.502 -2.38742 247.167 -2.38873 245.774Z" fill="#F2F2F2"/>
<path id="Vector_8" d="M21.5876 156.454H9.84406C8.6765 156.453 7.55709 155.899 6.7315 154.914C5.90591 153.929 5.44156 152.593 5.44025 151.2V93.9894C5.44156 92.5965 5.90591 91.261 6.7315 90.276C7.55709 89.291 8.6765 88.7369 9.84406 88.7354H21.5876C22.7551 88.7369 23.8745 89.291 24.7001 90.276C25.5257 91.261 25.9901 92.5965 25.9914 93.9894V151.2C25.9901 152.593 25.5257 153.929 24.7001 154.914C23.8745 155.899 22.7551 156.453 21.5876 156.454V156.454Z" fill="#F2F2F2"/>
<path id="Vector_9" d="M54.5267 132.519H34.9542V137.19H54.5267V132.519Z" fill="#CCCCCC"/>
<path id="Vector_10" d="M54.5267 168.714H34.9542V173.384H54.5267V168.714Z" fill="#CCCCCC"/>
<path id="Vector_11" d="M50.9464 156.454H39.2029C38.0353 156.453 36.9159 155.899 36.0903 154.914C35.2647 153.929 34.8004 152.593 34.799 151.2V93.9894C34.8004 92.5965 35.2647 91.261 36.0903 90.276C36.9159 89.291 38.0353 88.7369 39.2029 88.7354H50.9464C52.1139 88.7369 53.2333 89.291 54.0589 90.276C54.8845 91.261 55.3489 92.5965 55.3502 93.9894V151.2C55.3489 152.593 54.8845 153.929 54.0589 154.914C53.2333 155.899 52.1139 156.453 50.9464 156.454V156.454Z" fill="#F2F2F2"/>
<path id="Vector_12" d="M83.8855 132.519H64.313V137.19H83.8855V132.519Z" fill="#CCCCCC"/>
<path id="Vector_13" d="M83.8855 168.714H64.313V173.384H83.8855V168.714Z" fill="#CCCCCC"/>
<path id="Vector_14" d="M80.3051 156.454H68.5616C67.3941 156.453 66.2747 155.899 65.4491 154.914C64.6235 153.929 64.1591 152.593 64.1578 151.2V93.9894C64.1591 92.5965 64.6235 91.261 65.4491 90.276C66.2747 89.291 67.3941 88.7369 68.5616 88.7354H80.3051C81.4727 88.7369 82.5921 89.291 83.4176 90.276C84.2432 91.261 84.7076 92.5965 84.709 93.9894V151.2C84.7076 152.593 84.2432 153.929 83.4176 154.914C82.5921 155.899 81.4727 156.453 80.3051 156.454V156.454Z" fill="#F2F2F2"/>
<path id="Vector_15" d="M113.244 132.519H93.6718V137.19H113.244V132.519Z" fill="#CCCCCC"/>
<path id="Vector_16" d="M113.244 168.714H93.6718V173.384H113.244V168.714Z" fill="#CCCCCC"/>
<path id="Vector_17" d="M95.9632 251.028H84.2196C83.0521 251.026 81.9327 250.472 81.1071 249.487C80.2815 248.502 79.8171 247.167 79.8158 245.774V188.563C79.8171 187.17 80.2815 185.834 81.1071 184.849C81.9327 183.864 83.0521 183.31 84.2196 183.309H95.9632C97.1307 183.31 98.2501 183.864 99.0757 184.849C99.9012 185.834 100.366 187.17 100.367 188.563V245.774C100.366 247.167 99.9012 248.502 99.0757 249.487C98.2501 250.472 97.1307 251.026 95.9632 251.028V251.028Z" fill="#F2F2F2"/>
<path id="Vector_18" d="M99.8776 194.4H80.3051V199.071H99.8776V194.4Z" fill="#CCCCCC"/>
<path id="Vector_19" d="M106.728 230.595H87.1555V235.265H106.728V230.595Z" fill="#CCCCCC"/>
<path id="Vector_20" d="M125.322 251.028H113.578C112.411 251.026 111.291 250.472 110.466 249.487C109.64 248.502 109.176 247.167 109.175 245.774V188.563C109.176 187.17 109.64 185.834 110.466 184.849C111.291 183.864 112.411 183.31 113.578 183.309H125.322C126.49 183.31 127.609 183.864 128.434 184.849C129.26 185.834 129.724 187.17 129.726 188.563V245.774C129.724 247.167 129.26 248.502 128.434 249.487C127.609 250.472 126.49 251.026 125.322 251.028Z" fill="#F2F2F2"/>
<path id="Vector_21" d="M129.236 194.4H109.664V199.071H129.236V194.4Z" fill="#CCCCCC"/>
<path id="Vector_22" d="M136.087 230.595H116.514V235.265H136.087V230.595Z" fill="#CCCCCC"/>
<path id="Vector_23" d="M154.681 251.028H142.937C141.77 251.026 140.65 250.472 139.825 249.487C138.999 248.502 138.535 247.167 138.533 245.774V188.563C138.535 187.17 138.999 185.834 139.825 184.849C140.65 183.864 141.77 183.31 142.937 183.309H154.681C155.848 183.31 156.968 183.864 157.793 184.849C158.619 185.834 159.083 187.17 159.085 188.563V245.774C159.083 247.167 158.619 248.502 157.793 249.487C156.968 250.472 155.848 251.026 154.681 251.028V251.028Z" fill="#F2F2F2"/>
<path id="Vector_24" d="M158.595 194.4H139.023V199.071H158.595V194.4Z" fill="#CCCCCC"/>
<path id="Vector_25" d="M165.446 230.595H145.873V235.265H165.446V230.595Z" fill="#CCCCCC"/>
<path id="Vector_26" d="M107.062 287.806H87.4896V292.476H107.062V287.806Z" fill="#CCCCCC"/>
<path id="Vector_27" d="M109.664 156.454H97.9204C96.7529 156.453 95.6334 155.899 94.8079 154.914C93.9823 153.929 93.5179 152.593 93.5166 151.2V93.9894C93.5179 92.5965 93.9823 91.261 94.8079 90.276C95.6334 89.291 96.7529 88.7369 97.9204 88.7354H109.664C110.831 88.7369 111.951 89.291 112.776 90.276C113.602 91.261 114.066 92.5965 114.068 93.9894V151.2C114.066 152.593 113.602 153.929 112.776 154.914C111.951 155.899 110.831 156.453 109.664 156.454V156.454Z" fill="#F2F2F2"/>
<path id="Vector_28" d="M142.603 132.519H123.031V137.19H142.603V132.519Z" fill="#CCCCCC"/>
<path id="Vector_29" d="M142.603 168.714H123.031V173.384H142.603V168.714Z" fill="#CCCCCC"/>
<path id="Vector_30" d="M139.023 156.454H127.279C126.112 156.453 124.992 155.899 124.167 154.914C123.341 153.929 122.877 152.593 122.875 151.2V93.9894C122.877 92.5965 123.341 91.261 124.167 90.276C124.992 89.291 126.112 88.7369 127.279 88.7354H139.023C140.19 88.7369 141.31 89.291 142.135 90.276C142.961 91.261 143.425 92.5965 143.427 93.9894V151.2C143.425 152.593 142.961 153.929 142.135 154.914C141.31 155.899 140.19 156.453 139.023 156.454V156.454Z" fill="#F2F2F2"/>
<path id="Vector_31" d="M171.962 132.519H152.389V137.19H171.962V132.519Z" fill="#CCCCCC"/>
<path id="Vector_32" d="M171.962 168.714H152.389V173.384H171.962V168.714Z" fill="#CCCCCC"/>
<path id="Vector_33" d="M168.381 156.454H156.638C155.47 156.453 154.351 155.899 153.525 154.914C152.7 153.929 152.235 152.593 152.234 151.2V93.9894C152.235 92.5965 152.7 91.261 153.525 90.276C154.351 89.291 155.47 88.7369 156.638 88.7354H168.381C169.549 88.7369 170.668 89.291 171.494 90.276C172.32 91.261 172.784 92.5965 172.785 93.9894V151.2C172.784 152.593 172.32 153.929 171.494 154.914C170.668 155.899 169.549 156.453 168.381 156.454V156.454Z" fill="#F2F2F2"/>
<path id="Vector_34" d="M201.321 132.519H181.748V137.19H201.321V132.519Z" fill="#CCCCCC"/>
<path id="Vector_35" d="M201.321 168.714H181.748V173.384H201.321V168.714Z" fill="#CCCCCC"/>
<path id="Vector_36" d="M197.74 156.454H185.997C184.829 156.453 183.71 155.899 182.884 154.914C182.059 153.929 181.594 152.593 181.593 151.2V93.9894C181.594 92.5965 182.059 91.261 182.884 90.276C183.71 89.291 184.829 88.7369 185.997 88.7354H197.74C198.908 88.7369 200.027 89.291 200.853 90.276C201.678 91.261 202.143 92.5965 202.144 93.9894V151.2C202.143 152.593 201.678 153.929 200.853 154.914C200.027 155.899 198.908 156.453 197.74 156.454V156.454Z" fill="#F2F2F2"/>
<path id="Vector_37" d="M230.679 132.519H211.107V137.19H230.679V132.519Z" fill="#CCCCCC"/>
<path id="Vector_38" d="M230.679 168.714H211.107V173.384H230.679V168.714Z" fill="#CCCCCC"/>
<path id="Vector_39" d="M241.721 158.206H-37.1878C-37.4473 158.206 -37.6962 158.083 -37.8798 157.864C-38.0633 157.645 -38.1664 157.348 -38.1664 157.038C-38.1664 156.729 -38.0633 156.432 -37.8798 156.213C-37.6962 155.994 -37.4473 155.871 -37.1878 155.871H241.721C241.98 155.871 242.229 155.994 242.413 156.213C242.596 156.432 242.699 156.729 242.699 157.038C242.699 157.348 242.596 157.645 242.413 157.864C242.229 158.083 241.98 158.206 241.721 158.206Z" fill="#CCCCCC"/>
<path id="Vector_40" d="M267.499 251.611H-11.4094C-11.6689 251.611 -11.9178 251.488 -12.1014 251.269C-12.2849 251.051 -12.388 250.754 -12.388 250.444C-12.388 250.134 -12.2849 249.837 -12.1014 249.618C-11.9178 249.399 -11.6689 249.276 -11.4094 249.276H267.499C267.759 249.276 268.007 249.399 268.191 249.618C268.375 249.837 268.478 250.134 268.478 250.444C268.478 250.754 268.375 251.051 268.191 251.269C268.007 251.488 267.759 251.611 267.499 251.611Z" fill="#CCCCCC"/>
<path id="Vector_41" d="M214.929 279.433C220.017 279.433 224.142 274.512 224.142 268.441C224.142 262.371 220.017 257.449 214.929 257.449C209.841 257.449 205.716 262.371 205.716 268.441C205.716 274.512 209.841 279.433 214.929 279.433Z" fill="#E6E6E6"/>
<path id="Vector_42" d="M209.437 298.629C212.738 298.629 215.414 295.436 215.414 291.498C215.414 287.56 212.738 284.367 209.437 284.367C206.136 284.367 203.46 287.56 203.46 291.498C203.46 295.436 206.136 298.629 209.437 298.629Z" fill="#E6E6E6"/>
<path id="Vector_43" d="M196.362 332.87C191.784 324.348 188.411 314.987 186.377 305.16C185.812 302.425 185.353 299.662 185 296.874C184.979 296.729 184.913 296.601 184.814 296.514C184.716 296.427 184.593 296.39 184.471 296.409C184.35 296.429 184.24 296.503 184.164 296.618C184.088 296.733 184.052 296.878 184.064 297.023C185.357 307.176 188.039 317.007 192.004 326.122C193.112 328.666 194.317 331.146 195.617 333.563C195.945 334.172 196.687 333.476 196.362 332.87Z" fill="#E6E6E6"/>
<path id="Vector_44" d="M184.057 298.128C187.358 298.128 190.034 294.936 190.034 290.997C190.034 287.059 187.358 283.866 184.057 283.866C180.756 283.866 178.08 287.059 178.08 290.997C178.08 294.936 180.756 298.128 184.057 298.128Z" fill="#E6E6E6"/>
<path id="Vector_45" d="M113.913 334.509C128.506 334.509 140.335 320.395 140.335 302.985C140.335 285.574 128.506 271.46 113.913 271.46C99.3196 271.46 87.4897 285.574 87.4897 302.985C87.4897 320.395 99.3196 334.509 113.913 334.509Z" fill="#2F2E41"/>
<path id="Vector_46" d="M88.8068 505.355L88.1071 491.066L133.971 481.043L135.005 502.134L88.8068 505.355Z" fill="#FFB8B8"/>
<path id="Vector_47" d="M91.0287 480.62L92.379 508.179L77.8351 509.193L75.6347 464.282C77.5447 464.149 79.4579 464.466 81.2651 465.215C83.0724 465.964 84.7383 467.13 86.1678 468.647C87.5973 470.165 88.7623 472.003 89.5963 474.057C90.4303 476.111 90.9171 478.341 91.0287 480.62Z" fill="#2F2E41"/>
<path id="Vector_48" d="M108.755 505.224L101.137 516.282L61.7605 486.487L73.004 470.167L108.755 505.224Z" fill="#FFB8B8"/>
<path id="Vector_49" d="M86.8316 453.8L81.6256 483.081C81.5057 483.755 81.5124 484.453 81.6451 485.123C81.7779 485.794 82.0334 486.422 82.3935 486.961C82.7535 487.5 83.209 487.937 83.7274 488.241C84.2457 488.545 84.8141 488.709 85.3917 488.72L136.572 489.705C137.149 489.716 137.72 489.575 138.246 489.291C138.772 489.008 139.239 488.589 139.613 488.065C139.988 487.542 140.26 486.926 140.412 486.261C140.564 485.597 140.59 484.901 140.49 484.223L136.013 453.957C135.853 452.876 135.379 451.897 134.674 451.191C133.969 450.485 133.078 450.098 132.158 450.098H90.6609C89.7638 450.098 88.8939 450.466 88.1968 451.14C87.4997 451.814 87.0177 452.753 86.8316 453.8V453.8Z" fill="#2F2E41"/>
<path id="Vector_50" d="M95.3187 464.109C95.3187 464.109 45.4087 426.747 35.6225 446.596C30.7293 456.52 33.1759 466.153 36.8458 473.304C40.2514 479.815 45.1401 485.036 50.9404 488.355L91.4042 511.98L106.084 493.299L96.2973 482.79L95.3187 464.109Z" fill="#2F2E41"/>
<path id="Vector_51" d="M120.763 458.271C120.763 458.271 185.352 436.088 172.63 478.12C159.908 520.153 111.955 503.807 111.955 503.807L107.062 486.293L123.699 472.282L120.763 458.271Z" fill="#2F2E41"/>
<path id="Vector_52" d="M114.244 338.86C127.519 338.86 138.28 326.021 138.28 310.183C138.28 294.345 127.519 281.506 114.244 281.506C100.969 281.506 90.2078 294.345 90.2078 310.183C90.2078 326.021 100.969 338.86 114.244 338.86Z" fill="#FFB8B8"/>
<path id="Vector_53" d="M115.503 462.905C105.516 462.725 95.579 461.163 85.8929 458.251L85.6067 458.157L72.1941 384.548C70.9875 378.08 71.8079 371.308 74.5003 365.512C77.1928 359.716 81.5709 355.297 86.8078 353.09C102.984 346.165 120.616 345.745 137.011 351.894H137.011C142.512 354.009 147.143 358.521 149.979 364.53C152.815 370.538 153.648 377.602 152.312 384.311L137.331 458.096L137.12 458.216C130.894 461.734 123.109 462.905 115.503 462.905Z" fill="#CCCCCC"/>
<path id="Vector_54" d="M97.4866 468.623C97.9737 467.008 98.7517 465.54 99.7658 464.323C100.78 463.105 102.005 462.168 103.356 461.577C104.706 460.985 106.149 460.754 107.583 460.9C109.016 461.046 110.405 461.565 111.653 462.421L138.062 435.071L140.452 456.564L115.006 479.241C113.662 481.645 111.626 483.378 109.283 484.111C106.94 484.843 104.453 484.525 102.294 483.216C100.134 481.908 98.4519 479.699 97.566 477.01C96.68 474.32 96.6518 471.336 97.4866 468.623V468.623Z" fill="#FFB8B8"/>
<path id="Vector_55" d="M122.616 475.756C122.187 475.756 121.759 475.681 121.348 475.534C120.68 475.302 120.068 474.882 119.563 474.31C119.059 473.738 118.677 473.03 118.449 472.246L115.261 461.471C114.963 460.475 114.925 459.395 115.152 458.373C115.38 457.35 115.862 456.435 116.535 455.747L152.518 429.974L138.334 354.477L138.695 354.374C138.841 354.33 153.374 350.384 159.33 369.331C163.5 382.601 178.933 411.453 177.844 430.951C177.638 434.851 176.335 438.554 174.147 441.462C171.959 444.37 169.013 446.314 165.786 446.979L125.282 474.665C124.519 475.371 123.582 475.755 122.616 475.756Z" fill="#CCCCCC"/>
<path id="Vector_56" d="M126.71 466.062C126.223 464.447 125.445 462.979 124.431 461.762C123.417 460.544 122.191 459.607 120.841 459.015C119.49 458.424 118.047 458.193 116.614 458.339C115.18 458.485 113.791 459.004 112.544 459.86L86.1344 432.51L83.745 454.003L109.19 476.68C110.534 479.084 112.571 480.817 114.914 481.55C117.257 482.282 119.744 481.964 121.903 480.655C124.063 479.346 125.745 477.138 126.631 474.448C127.517 471.759 127.545 468.775 126.71 466.062V466.062Z" fill="#FFB8B8"/>
<path id="Vector_57" d="M104.172 474.589C103.207 474.587 102.269 474.203 101.506 473.498L58.0671 448.146C54.8394 447.481 51.8937 445.538 49.7058 442.63C47.5178 439.722 46.2153 436.019 46.0084 432.118C44.9197 412.621 63.2885 381.433 67.4589 368.163C73.4138 349.216 87.947 353.162 88.0939 353.206L88.4547 353.31L71.3344 431.141L110.253 454.579C110.926 455.267 111.409 456.183 111.636 457.205C111.864 458.227 111.826 459.307 111.528 460.303L108.34 471.078C108.112 471.863 107.73 472.571 107.225 473.143C106.721 473.715 106.109 474.134 105.441 474.367C105.029 474.514 104.602 474.588 104.172 474.589V474.589Z" fill="#CCCCCC"/>
<path id="Vector_58" d="M155.936 487.461H68.838C67.0218 487.458 65.2806 486.596 63.9963 485.064C62.7121 483.532 61.9897 481.454 61.9876 479.288V422.077C61.9897 419.91 62.7121 417.832 63.9963 416.3C65.2806 414.768 67.0218 413.906 68.838 413.904H155.936C157.752 413.906 159.493 414.768 160.777 416.3C162.062 417.832 162.784 419.91 162.786 422.077V479.288C162.784 481.454 162.061 483.532 160.777 485.064C159.493 486.596 157.752 487.458 155.936 487.461V487.461Z" fill="#6C63FF"/>
<path id="Vector_59" d="M112.445 456.52C115.687 456.52 118.316 453.384 118.316 449.515C118.316 445.646 115.687 442.509 112.445 442.509C109.202 442.509 106.573 445.646 106.573 449.515C106.573 453.384 109.202 456.52 112.445 456.52Z" fill="white"/>
<path id="Vector_60" d="M89.9671 309.016C88.5425 304.705 90.8798 299.567 94.3471 297.479C97.8144 295.391 101.998 295.788 105.707 297.164C108.824 298.321 111.745 300.113 114.786 301.529C117.784 303.114 121.058 303.81 124.33 303.557C127.574 303.12 130.802 300.95 132.129 297.392C133.505 293.705 132.569 289.204 130.45 286.057C128.196 283.014 125.279 280.777 122.023 279.594C114.872 276.589 106.611 276.501 99.9721 280.87C93.3331 285.239 88.8212 294.542 90.1935 303.439" fill="#2F2E41"/>
</g>
<defs>
<clipPath id="clip0">
<rect width="641" height="483" fill="white"/>
</clipPath>
</defs>
</svg>
