<?xml version="1.0"?>
<svg xmlns:rdf="http://www.w3.org/1999/02/22-rdf-syntax-ns#" xmlns="http://www.w3.org/2000/svg" xmlns:cc="http://web.resource.org/cc/" xmlns:dc="http://purl.org/dc/elements/1.1/" xmlns:sodipodi="http://inkscape.sourceforge.net/DTD/sodipodi-0.dtd" id="svg4650" sodipodi:docname="zwille.svg" sodipodi:version="0.32" height="250pt" width="280pt" version="1.0" sodipodi:docbase="C:\foo\wikipedia\transfer">
 <sodipodi:namedview id="base" bordercolor="#666666" pagecolor="#ffffff" borderopacity="1.0"/>
 <path id="path4661" d="m41.224 309.64c-13.92-1.89-12.558-20.99-18.563-31.12-2.919-6.73-12.159-34.26 1.508-26.31-0.92 4.42 5.564-0.81 0.673 7.03-5.959 0.17 4.713 6.03-0.278 6.71 1.036 2.63 5.975-0.38 3.823 6.19 2.614 2.74 2.689 3.99 0.795 6.16 2.093 5.29 9.293 4.04 3.685 9.1-5.333 6.47 5.152 4.55 4.343 8.02-3.83 2.53-2.409 6.89 1.185 8.83 2.111-3.24 6.748-4.01 0.036-5.01 6.488-4.96 3.509-14.78 4.817-22.2-4.48-8.17 6.138-4.11 0.411-9.27 3.199-2.12 7.378 5.44 9.871 1.84 3.237 1.87 8.571 0.46 12.347 0.66 4.73 4.21 10.632 4.93 3.848-1.64-5.295-0.43-11.095-1.38-16.414-3.85-6.396-0.94-14.737-1.71-17.022-8.94-2.753-5.12-7.637-8.88-8.218-14.92-7.185-9.5 1.906 14.3-8.966 3.55 2.47-10.02-2.508-19.5-9.7644-25.69 4.9344-0.77 11.773 3.42 15.629 6.44 4.49 4.01 11.182-5.84 2.665-2.72-3.742 2.05-6.004-4.3-9.673-5.43-1.32-0.75 5.369-9.07 5.645-1.2 6.064 4.06 5.38-5.91 9.457-7.86 3.193-4.42 4.381-10.1 7.699-14.51 1.783-3.26 4.502-10.1-1.039-10.94-6.403 2.66-8.196 10.76-13.899 14.43-1.209 6.71-4.147 4.91-7.172 10.64-2.231 3.77-7.307 5.48-11.274 6.73 1.2683-10.65 17.12-18.9 11.053-33.2-0.815-7.74 1.767-20.24 4.271-7.48-2.915 10.33 2.888 29.73 7.663 11.33-1.036-4.71 1.362-8.65-0.811-12.77 5.04 4.36 9.447 6.85 12.985 1.85 7.047-3.67 8.318 1.62 8.377 7.96 3.114 5.42 11.033 2.77 9.041-3.75-2.484-5.28-24.28-16.37-12.192-17.82 1.564-3.65 12.664-1.7 9.844 2.39-0.808 4.09-6.56 6.49 1.173 7.32 4.22 1.62 4.659 6.09 10.416 2.98 7.149-2.02-1.242-8.52-4.286-12.58-5.379-2.72-7.704-7.39-12.297-11.51-6.054-7.53 2.706-7.22 2.954 0.17 2.776 1.99 8.901 5.61 8.752-0.41 9.007-1.89 0.235 1.77 1.316 6.07 2.698 0.09 14.043-2.53 13.933 2.84 2.351 12.67 5.451 2.01 6.408-2.48 6.944-3.88 4.674 2.68 5.45 7.22 5.229 2.09 9.851-3.39 10.251-8.31-7.326 2.87-7.123-4.88-0.05-5.1 1.97-3.3 12.49-10.11 12.54-4.67-6.91 5.1-0.77 14.01 2.86 3.71 12.15-3.96 11.87-10.04 2.04-9.16 5.68-4.21 12.77-7.14 17.4-13.02 2.69-3.83-4.8-8.39 3.51-5.4-3.72-12.25 6-0.96 9.13 5.41 7.75 5.16 1.52 6.8-2.2-0.29-7.54-3.56-1.97 4.91 0.46 7.99 2.77 4.92 6.83 8.79 10.16 13.27 4.69 2.15 7.89 6.1 11.5 9.24 5.33 4.78 10.91 9.41 15.65 14.37 7.06 3.14 13.49 10.62 19.41 11.73 4.18-3.21 9.46 7.82 14.48 9.84 4.68 7.44 12.62 12.81 18.86 19.17 6.99 5.57 12.74 11.05 18.25 17.45 5 6.15 11.95 9.96 16.32 16.49 4.74 4.33 11.3 6.5 14.08 12.74 3.32 4.53 6.44-1.71 10.91 2.47-0.8 4.56 4.26 4.3 8.71 7.98 9.58-1.82-3.26-6.96-0.14-12.99-2.02-7.54 4.29-0.09 7.1 1.59 2.11 3.63 3.86 12.23 10.23 10.73 2.82-3.08-4.11-12.44 0.57-11.78 5.24 5.38 3.93 12.19 10.39 16.71 10.94 0.87-6.43-8.53-1.66-14.34 2.73-7.44-1.04-19.55 4.42-5.2 3.41 10.5 14.96 24.63-2.94 27.39-12.23 2.75-12.16 0.86-7.88-5.61-5.85-6.36-7.18 13.3-12.21 1.62-13.38-5.16-28.53 2.57-42.79 1.86-0.67-1.16 8.25-9.61 12.15-6.77 5.82-1.72-0.75-9.72-4.37-5.46-1.12 1.44-12.14-4.98-9.06-6.65 5.26 2.13 8.85-4.2 2.77-8.11-5.62-2.28-11.65 2.35-17.23 3.21-1.73-3.3-6.37-6.12-10.82-5.1-6.55 3.04-13.63 1.3-20.42 3.53-2.42-4.91-4.78-10.13-4.58-15.96-1.98-6.52-0.33-13.78-4.15-19.16 2.33-1.79-4.96-4.78-2.79-11.4-6.76-6.09 1.58-11.28 5.34-1.19 9.65 4.41 13.31 16.73 23.16 20.79-7.61-12.54-20.39-20.87-30.6-31.1-4.84-2.43-6.11-9.71-12.1-10.44 0.15 2.08 7.86 11.63 3.48 9.66-3.87-6.38-5.28-1.2-1.43 2.43 5.7 5.87 7.86 14.1 10.19 21.65 1.59 3.79 2.16 7.98 3.76 12.17 4.57 9.01 1.73 19.84 4.35 29.35-2.03 6.09-5.69-2.45-5.66-5.31-2.67-5.56-5.07-11.9-9.87-16.54-9.14-5.39-1.36-9.26-0.28-10.92-3.9-6.27-8.39-9.84-13.55-15.73-7.31-4.94-9.63-0.15-1.31 2.37 4.76 3 12.54 10.48 7.77 15.94-3.73-4.43-9.12-7.82-4.79-0.27 7.61 3.75 10.45 12.89 16.11 18.68 0.02 3.1 6.13 6.85 2.22 9.08-7.01-7.85-14.01-16.17-19.3-25.23-10.65-12.95-23.24-24-34.84-35.91-5.23-7.56-10.25-15.2-15.34-22.87-5.13-2.71-6.21-8.76-10.99-11.51-3.29-5.47-10.25-6.64-11.64 0.83-2.12 5.12 0 12.11-5.09 14.68-4.95 4.25-11.17 11.61-12.056 15.84 4.476 1.59 6.556 6.86 8.976 10.91 2.61 2.41 2.45 18.68 0.6 11.02-1.28-7.41-7.24-12.22-10.476-18.52-2.981-2.71-9.896 0.84-11.439 4.09-1.893 7.52 1.306 6.88 5.528 2.78 6.201 5.48 3.209 16.11 5.082 22.68 1.308-5.56 0.767-23.34 3.655-9.15 0.12 5.77 3.41 19.44 2.87 4.79 6.25-13.54 2.83 20.78 7.48 7.48 3.51-7.61 1.88 18.81 5.47 3.08 0.85-10.12-3.68-19.91-6.33-29.55-4.56-8.44-6.18-22.68 2.53-8.86 5.16 5.46 7.78 12.92 9.51 20.12 1.6 11.24 2.67-4.28-0.13-7.69-0.4-3.68-4.22-7.94-2.46-11.12 2.84 4 4.04 9.84 6.11 13.68 2.07 5.61 2.31 31.23 4.42 13.95 2.74-9.51-7.25-23.18-5.5-28.69 4.1-2.97-2.77-5.49-5.65-6.91-5.08-1.92-0.27-5.97-3.63-8.33 2.72-5.33 4.97 4.55 9.34 4.8 3.49 5.42 1.89-5.14-0.74-7.22-7.1-8.73-4.78-7.47 2.59-4.05-4.48-6.86 5.54-1.36 6.17 1.47-3.55 4.36 2.18-0.17 4.09 3.79 4.13 1.82 1.37 7.8 6.68 9.71 3.86 2.83 2.39 7.66 6.61 9.7 2.55 2.86 3.7 7.33 8.16 10.16 3.02 1.72 6.39 6.07 6.45 9.15 5.78 2.07 10.75 6.86 15.22 12.32 2.74 6.12 7.08 6.69 10.83 11.54 2.29 3.83 3.38 5.03 6.08 8.17 5.11 3.31 7.02 10.45 12.11 13.09 3.93-2.47 3.17 4.9 5.66 6.82 10.26 16.42-16.34 8.15-25.22 11.59-11.35 1.01-18.97 2.46-30.04 1.84-15.15-0.85-30.21 0.83-45.22 2.01-13.28-0.36-27.206-1.41-40.161 1.8-6.007 12.08-14.494 24.06-30.074 24.04l-1.73 0.27-2.021-0.08zm131.68-27.37c0.69-0.48 0.69 0.49 0 0zm-139.97-1.85c1.639-12.14 5.724 2.27 0 0zm229.2-1.7c0.34-0.47 0.34 0.47 0 0zm0.62 0.05c-12.72-2.75-26.23-2.46-39.41-1.4-0.08-9.58-7.05-10.38-3.09-17.86 2.97 0.82 14.53 2.2 12.8-5.4 4.96 0.71 3.93 11.44 6.41 4.25 0.35-4.71 9.77-6.77 8.72-0.71-0.91 4.95-3.8 14.63 1.78 16.66-2.73-2.1 2.34-7.72 2.63-0.66 4.35 0.71 3.98-7.7 7.64-9.34 5.21-3.89 16.73 5.04 6.22 4.8-9.39 0.64 1.48 8.35-3.7 9.66zm1.49-8.01c0.32-0.7 0.32 0.69 0 0zm-0.53-0.2c0.34-0.47 0.34 0.47 0 0zm35.06-23.17c-8.33-3.31-19.19 1.21-26.05-4.87-7.06-7.77-14.75-15.27-22.34-22.29-8.62-9.87-18.65-17.06-27.73-26.55-3.94-0.75-2.15-6.77-6.84-6.83-2.07-3.76-5.71-5.35-8.95-8.02-7.74-10.5 14.52 7.01 17.76 11.64 6.19 11.97 19.06 17.03 28.58 25.41 10.8 8.78 17.8 24 32.45 26.77 13.73 1.45 26.45-8.86 39.62-2.27-1.61 0.67-11.61 1.2-15.69 5.44-3.45 1.34-7.15 1.47-10.81 1.57zm-199.49-43.39c-6.839-4.16-5.157-9.66 0.968-1.62 0.11 0.61 0.56 2.57-0.968 1.62zm97.618-33.84c-5.24-5.19-10.76-9.93-15.35-15.81-4.29-3.05-7.26-9.22-11.01-5.27 1.44-2.4-1.04-5.88-3.82-7.76-2.9-4.54-7.24-8.75-11.51-12.24-7.55-6.66-6.73-11.35-9.56-18.25 1.19-4 9.94-1.96 14.15-4.26 5.74 0.4 11.69-3.23 17.63-4.34 5.59-3.074 11.42-0.26 17 1.18 2.21-5.09-1.52-10.212-7.18-9.921-3.34 1.194-5.37 5.664-11.59 7.621-2.3 4.66-26.12 0.02-13.35-0.72-0.05-5.191 8.35 2.41 9.14-3.121 0.46-8.019-5.43-4.861-7.92-1.586-1.07-6.462-14.74 0.147-10.63-5.103 3-4.431 11.16-1.853 15.13-2.104 7.29-0.947 0.33-3.758-3.18-5.462-5.9-1.937-15.46 0.07-5.18-4.522 7.1-1.845 13.67 0.707 19.67 4.259 3.94 1.703 9.14 5.165 12.06 0.245 2.18 3.854 6.55-6.232 5.72 4.361 4.88 4.124 13.99-3.247 19.47-0.263 2.88 7.115 10.61 2.563 2.02-1.579-4.11-3.839-9.34-8.036-14.52-9.57-3.84-3.653-9.71-3.276-14.22-4.639-8.88-0.659-16.53 1.134-24.93 2.495-6.88 1.266-12.73 5.465-16.81 10.779-5.44-0.515-9.05 6.022-11.02 9.808-3.37 3.809-2.3 18.422-6.06 8.562-8.24-5.389 4.42 10.97-2.5 5.74-2.64-3.95-8.02-5.99-11.48-7.84-4.3-6.325-6.47-6.732-5.05-16.767 4.05-14.54 1.92 14.299 5.08 4.25-0.22-3.092 1.11-19.278 2.37-9.991-0.02 8.572 2.48 8.154 2.23 2.234 0.19-8.459-0.7-15.472 0.86-19.543 0.88-8.527 7.79-20.088 3.67-4.341-1.2 9.404-2.14 14.835-1.44 24.475 3.03 7.258 2.19 0.571 2.63-3.013 1.33-14.343-0.84-29.841 6.96-42.852 1.11 5.174-5.13 20.595-2.62 23.439 0.63 4.746-5.35 16.95 1.19 15.78-6.41 1.221 2.13 9.68 3.21 5.523-7.24-3.701 9.91-7.385 1.7-10.563-6.66 9.164 0.5-8.944-2.6-12.536-2.48-4.972 0.44-8.441 0.66-13.669 0.94-4.844 2.41-13.036 7.1-13.828-7.27 9.123-5.42 22.12-5.13 33.021 7.71 1.077-4.66 5.605 4.19 6.119 4.6-7.33-4.9-11.939-2.45-17.555 3.66-2.69-2.73-2.649 1.42-7.436 2.21-4.993 4.85-9.664 5.86-15.154 3.77-5.094 3.67-11.678 9.1-15.255 5.69-2.221 10.29-3.5825 4.58 3.124-3.25 4.707-4.17 11.896-7.17 15.703-1.12 5.774-1.67 12.222-1.18 19.018-1.51 4.942 3.56 25.078 3.29 12.634 3-3.303-2.62-8.078 0.48-6.962 3.23-8.71-5.3-10.452 1.35-14.635 0.67-8.196 0.52-11.053 3.49-16.306 3.56-3.192 3.04-11.239 7.71-13.966-0.44 5.287-5.32 11.186-3.74 15.104-0.75 3.983-0.52 5.082-3.61 3.691 3.24 5.792-4.54 16.051-1.68 17.906 2.17-0.576 5.17 10.593 1.73 10.349-1.17 2.431-3.65 7.153 5.51 4.543 8.73 2.75 2.8-4.985-0.58-8.401-1.18-5.668-3.07-12.158-1.46-16.592 2.9-5.253 3.04-10.402 4.49-15.901 0.72-4.259 4.67-18.926 5.86-8.878-0.01 7.413-6.88 12.232-0.34 15.331-9.42 1.053-7.21 15.019-6.12 21.986 3.95 13.688 9.86 5.457 4.01-3.654-2.2-10.123 3.85-10.589 3.03-0.856 3.34 18.758-0.01-6.173 3.73-10.828 2.31-5.348-11.26 0.382-4.12-4.044-0.25-3.954 9.18-6.42 3.3-11.713-7.95-3.063 4.93 0.385 1.15-5.527 4 0.124 3.14 7.34 3.61 11.698-2.86 4.974 0.79 7.406-2.84 15.74 1.7 4.573 0.69 12.441 1.75 19.152 1.03-4.337 9.58-5.858 6.27-11.47-3.32-4.641 0.51-12.551-3.51-16.072 1.84-3.601 7.92-8.123 2.38-15.495-4.5 1.089-0.39-5.238 0.13-6.779 2.5 5.822 5.92 12.76 4.95 17.045 0.69 1.27-1.07 6.399-1.26 9.607 6.78-2.395-5.58 5.594 0.57 5.988 8.23-7.231-2.95 16.264 4.05 8.614 3.35-9.971-2.5-18.468 1.57-25.374 0.39-4.565-8.58-12.654-2.42-13.1 0.72 4.832 5.23 7.351 5.23 10.922 5.59 8.318-3.37 10.825 2.04 15.056 3.56 0.622-5.74 10.06-5.91 16.78 1.77 5.718 5.2 0.978 4.6-3.011-0.59-7.678 8.39-11.828 4.4-16.533 5.92-1.455 0.58-3.978-1.76-4.335 5.4-0.638-0.93-8.293 4.21-6.714 3.51 5.597 6.37 22.151-3 22.247 0.28 4.465-3.06 16.436 1.34 10.123 1.17-1.654-0.58-4.714 4.76-4.929-1.26-6.979 5.87-13.071 2.11-19.18 1.14-3.28-1.82-14.672 2.36-3.398 4.89 7.397 1.09 15.12-1.45 16.715 0.63 3.532-1.95 7.444 2.44 7.37 6.39 6.022-7.8-0.092-7.31 3.679-3.47 9.407 3.5 0.927 7.12 2.043 3.76 1.27 6.79-9.047 9.15-2.3-6.84 4.905-0.83 4.164 1.38 8.533 6.81-0.941 3.72 7.127 1.63 7.194 2.79 2.857 7.63 11.412 7.24 2.765-8.81-2.636 2.36-3.531-0.87-6.66-7.94-14.801 12.42 8.845 5.32 10.287-4.06 3.75-3.08 4.332-0.11 6.734 0.22 5.355 2.29 15.384-0.4 18.924-2.98 3.54-4.17 8.6-7.76 11.78-2.22 4-7.94 4.54-9.86 0.18 2.86-1.55 3.44-7.48 2.88-13.15-7.27 0.61-11.18-4.91-15.74-4.74-7.23 4.09-2.63 6.16 4.19 4.41 5.22 0.35-2.16 9.05-5.82 5.6 3.04 7.25 13.26 5.45 15.99 12.93-2.82 4.07-2.31 9.01-6.64 11.88-3.1 7.38-7.89 13.77-10.53 21.4-4.94 3.28-5.84 11.11-9.3 13.69zm-52.06-96.359c6.58 0.076-0.98-5.19 3.81-8.411 1.09-5.233-0.94-11.932-2.52-10.857 3.67-3.651-0.71-5.084 2.1-7.773-1.38-2.522 0.36-4.465 1.9-8.099 1.23-5.335-0.71-9.818 4.48-13.292 1.55-3.48 5.28-7.66 3.81-11.253-5.32 2.512-6.41 10.045-9.88 14.983-2.53 4.602-2.96 10.158-3.78 15.09-4.89 2.279 2.24 4.631-1.87 8.621 1.86 5.613 5.38 12.602 1.06 19.149-3.89-1.087-1.57 3.85 0.89 1.842zm59.35 96.399c1.32-4.9 2.5-7.42 5.17-10.73 0.59-2.94 4.32-12.72 4.87-9.2 1.49 3.32 2.14-6.57 5.08-8.54 1.4-2.28 0.58-7.16 5.38-8.05-0.88-3.28-0.51-8.21 3.71-9.6 3.26-4.09 7.76-4 8.99-8.55 2.24-3.48 3.45-8.57 6.18-9.49-2.55-5.64-0.42-10.315 0-15.735 5.85-19.394 5.23 9.417 2.91 15.665-2.68 14.58-15.58 22.73-21.81 35.35-6 10.05-9.19 23.32-20.48 28.88zm-183.23-10.46c8.955-7.7 2.064-23.36 16.587-24 9.495-7.34 21.714-11.81 11.578-25.48-6.041-16.251 15.089-15.513 24.413-13.159 9.167-9.133 6.119 11.079-2.113 5.839-5.234-2.02-11.208-3.895-15.901 0.21-5.363 4.44-0.611 12.43 0.975 18.09 1.982 4.51 1.972 9.81-4.15 9.81-5.964-0.13-11.412 4.1-10.846 10.42-8.511-1.91-10.71 5.27-12.206 11.96-2.814 2.4-4.109 6.48-8.337 6.31zm59.027-8.68c-5.141-3.67-10.059-8.33-13.029-13.63 1.821-2.71 6.295-13.18 0.741-12.83-2.589 6.35-5.172-2.83-7.058-6.11-3.667-4.39-4.676-10.01 1.25-2.21 3.129 3.8 13.028 0.95 14.016-4.11 3.533-2.66 9.459 9.04 2.22 8.22-7.695 1.42 2.698 4.35 3.835 4.17 7.269-2.42-5.194 7.73-4.238 12.78 3.202 2.75 6.731 13.25 2.263 13.72zm7.429-6.12c-3.071-2.43-3.188-8.53-3.875-12.23 7.273-2.38 2.404-9.46 4.606-13.24-4.958-2.09 2.975-8.76-2.237-7.7-5.861 5.9 0.046-5.19 1.316-7.58 0.455-5.409 8.271-8.239 7.238-14.254-5.72-3.014-7.348-6.401 0.219-5.581-1.44-4.7-10.32-6.413-8.773 1.813-9.567 11.584-0.23-19.767 8.264-16.522 7.06 3.061 15.44 3.621 19.13-4.136 1.51 7.79-4.86 12.288-6.99 18.565 3.3 8.031-8.594 1.02-3.69-4.227 2.17-4.622-3.776-4.441-6.514-6.178-8.151-0.977-2.825 6.507 0.899 8.528 3.175 5.464 3.355 7.264 8.625 9.829-2.08 3.795-0.81 13.573 1.85 14.813-1.24 6.15 10.67 4.37 3.13 0.71-2.51-6.57-0.91-13.505 3.99-4.74 5.82 2.99 9.04 16.38 16.84 10.54 0.15-4.35 14.72-8.38 7.05-4.21-5.58 7.61-13.84 14.26-21.73 20.09-7.31 3.82-13.17 9.86-20.736 13.4-2.645 1.41-5.508 2.76-8.612 2.31zm69.198-9.58c-9.14-12.09 12.33 10.38 0 0zm89.88-58.566c2.25-6.71-14.44-10.842-7.96-11.942 1.3-6.961-2.96-12.488-3.9-18.958-0.46-5.908-7.22-2.141-8.56-4.732-2.58-9.148 10.18 0.392 12.94 2.346 2.31 11.089 9.6 22.172 8.46 33.485l-0.4 0.373-0.58-0.572zm-18.1-11.778c2.42-6.876-4.11-12.343-9.62-11.614-5.26-4.697 4.96-8.603 0.63-17.593-3.44-10.668 6.8 0.733 3.64 5.286 1.09 6.194 11.03 0.42 9.48 7.741-3.16 1.747-4.4 2.259 1.06 3.704 0.07 3.801 4.38 7.756 1.89 11.062-5.45-4.313-4.74-6.813-5.46 1.4-0.21-0.539-2 1.344-1.62 0.014zm-114.84-11.224c3.52-13.262 11.53-25.597 21.89-34.704 10.41-10.589 24.4-15.659 39.17-15.879 11.98-2.8717 25.23-1.2992 34.29 7.585 8.52 6.538 24.88 18.146 26.08 25.078-6.22-6.076-14.71-7.818-19.74-15.373-6.3-3.151-11.37-8.98-17.12-12.371-8.64-2.4864-18.26-0.5102-27.33-2.0401-10.03 1.269-20.15 3.7851-27.52 11.285-7.6 6.927-16.09 13.793-19.39 23.735-2.8 4.828-8.27 6.919-10.33 12.684z"/>
 <metadata>
  <rdf:RDF>
   <cc:Work>
    <dc:format>image/svg+xml</dc:format>
    <dc:type rdf:resource="http://purl.org/dc/dcmitype/StillImage"/>
    <cc:license rdf:resource="http://creativecommons.org/licenses/publicdomain/"/>
    <dc:publisher>
     <cc:Agent rdf:about="http://openclipart.org/">
      <dc:title>Openclipart</dc:title>
     </cc:Agent>
    </dc:publisher>
   </cc:Work>
   <cc:License rdf:about="http://creativecommons.org/licenses/publicdomain/">
    <cc:permits rdf:resource="http://creativecommons.org/ns#Reproduction"/>
    <cc:permits rdf:resource="http://creativecommons.org/ns#Distribution"/>
    <cc:permits rdf:resource="http://creativecommons.org/ns#DerivativeWorks"/>
   </cc:License>
  </rdf:RDF>
 </metadata>
</svg>
